<?xml version="1.0" encoding="UTF-8"?>
<svg version="1.1" xmlns="http://www.w3.org/2000/svg" width="400" height="400">
<path d="M0 0 C132 0 264 0 400 0 C400 132 400 264 400 400 C268 400 136 400 0 400 C0 268 0 136 0 0 Z " fill="#0C4796" transform="translate(0,0)"/>
<path d="M0 0 C132 0 264 0 400 0 C400 132 400 264 400 400 C268 400 136 400 0 400 C0 268 0 136 0 0 Z M157 8 C156.28021973 8.16016602 155.56043945 8.32033203 154.81884766 8.48535156 C112.39508715 18.15464321 73.99531812 43.04529773 47 77 C46.20464844 77.96679688 45.40929688 78.93359375 44.58984375 79.9296875 C23.93330677 105.6603342 11.11786313 137.56362494 6 170 C5.88430664 170.69544922 5.76861328 171.39089844 5.64941406 172.10742188 C-1.08456252 213.71020893 8.05534379 257.20484838 28 294 C28.56460937 295.04542969 29.12921875 296.09085937 29.7109375 297.16796875 C55.18924312 342.44279822 98.02288539 374.53933374 147.4375 389.375 C154.88305976 391.33905653 162.40157594 392.78797026 170 394 C171.28003906 394.20753906 172.56007812 394.41507812 173.87890625 394.62890625 C224.21674978 402.01926126 276.2330412 387.47255794 317 357.6875 C330.51628875 347.35577192 342.41638221 336.33778347 353 323 C353.81855469 321.98679687 354.63710938 320.97359375 355.48046875 319.9296875 C382.69065766 285.83900413 396.21744796 242.95176882 396.25 199.625 C396.25067474 198.8187619 396.25134949 198.0125238 396.25204468 197.18185425 C396.23607378 185.17189161 395.66420378 173.74504798 393 162 C392.65525147 160.31400595 392.31155112 158.62779733 391.96875 156.94140625 C386.64177739 131.81527184 376.11330516 107.80729588 361 87 C360.30519531 86.02160156 359.61039062 85.04320313 358.89453125 84.03515625 C353.43421798 76.52601747 347.41100234 69.69030639 341 63 C340.52159668 62.49436523 340.04319336 61.98873047 339.55029297 61.46777344 C332.27174335 53.80229992 324.60305547 47.13798244 316 41 C315.44006348 40.59571777 314.88012695 40.19143555 314.30322266 39.77490234 C280.39251044 15.50349045 240.70685181 3.82429169 199.25 3.6875 C198.10247253 3.68357239 198.10247253 3.68357239 196.9317627 3.67956543 C183.30432544 3.67459942 170.31291225 4.95230454 157 8 Z " fill="#FDFEFE" transform="translate(0,0)"/>
<path d="M0 0 C10.78365045 6.118691 18.09918602 14.35636631 21.94140625 26.1015625 C22.74351509 29.54204954 23.25677045 32.98798809 23.72265625 36.48828125 C23.93109161 37.93959442 23.93109161 37.93959442 24.14373779 39.42022705 C24.5886815 42.54156982 25.01546636 45.66507492 25.44140625 48.7890625 C25.74618233 50.95853965 26.0518531 53.12789128 26.35839844 55.29711914 C27.23891434 61.56265993 28.09491858 67.83134294 28.94140625 74.1015625 C29.05460205 74.9380835 29.16779785 75.77460449 29.28442383 76.63647461 C31.3435059 91.88580358 33.23517411 107.15589168 34.99121094 122.44311523 C35.10239258 123.39645752 35.21357422 124.3497998 35.328125 125.33203125 C35.42311279 126.16114014 35.51810059 126.99024902 35.6159668 127.84448242 C35.89629197 130.07917677 35.89629197 130.07917677 36.46484375 132.13037109 C39.68302464 145.44163773 36.74184799 160.42284449 30.37890625 172.2265625 C24.71083774 180.89040915 17.95645257 187.53116024 8.65625 191.98828125 C7.96354507 192.32692703 7.27084015 192.66557281 6.55714417 193.01448059 C-0.59807357 196.45708298 -7.92537075 199.45076174 -15.30548096 202.37219238 C-19.35262549 203.97466491 -23.39050693 205.6002391 -27.4296875 207.22265625 C-28.24369019 207.54896027 -29.05769287 207.87526428 -29.8963623 208.2114563 C-37.69371926 211.34263306 -45.44266909 214.5838847 -53.18359375 217.8515625 C-63.12461728 222.04008547 -73.07683545 226.19851213 -83.05859375 230.2890625 C-84.72365967 230.97597168 -84.72365967 230.97597168 -86.42236328 231.67675781 C-98.65856824 236.671827 -110.65220556 239.80116999 -123.6875 235.19921875 C-134.90058198 230.00831919 -142.07536298 221.85628557 -146.33203125 210.36328125 C-149.53920212 200.3796687 -148.89533357 190.7584306 -144.69140625 181.14453125 C-138.4517495 169.51608003 -127.06200579 162.62134584 -116.65869141 155.02294922 C-112.65026861 152.06085651 -108.72882902 148.99137444 -104.80859375 145.9140625 C-98.51960431 140.99308325 -92.17844245 136.15209596 -85.77368164 131.3828125 C-82.58522574 129.00626363 -79.4139334 126.61271167 -76.27734375 124.16796875 C-75.68091064 123.70358398 -75.08447754 123.23919922 -74.4699707 122.76074219 C-72.85480789 121.49898917 -71.2436618 120.2320991 -69.6328125 118.96484375 C-67.05859375 117.1015625 -67.05859375 117.1015625 -64.05859375 116.1015625 C-63.98946777 114.66816528 -63.98946777 114.66816528 -63.91894531 113.20581055 C-63.38187379 103.02033173 -62.24267016 93.00816492 -60.80859375 82.9140625 C-60.47100915 80.50353594 -60.13488832 78.09280877 -59.79905701 75.68203735 C-59.56779832 74.0222506 -59.33583029 72.36256253 -59.10316467 70.70297241 C-58.27108576 64.73625886 -57.50321222 58.76324782 -56.7578125 52.78515625 C-56.43998463 50.28114409 -56.12085058 47.77730243 -55.80114746 45.27352905 C-55.59999552 43.67648812 -55.40351672 42.07885068 -55.21203613 40.48062134 C-53.44579583 25.7793711 -49.79145779 14.09508717 -37.92578125 4.41796875 C-27.58780416 -2.87052137 -11.88676909 -4.97802071 0 0 Z " fill="#F9FCFC" transform="translate(216.05859375,63.8984375)"/>
<path d="M0 0 C1.93211445 1.12750788 3.8285386 2.3180713 5.6875 3.5625 C6.72648438 4.25085938 7.76546875 4.93921875 8.8359375 5.6484375 C15.88786155 10.81501424 15.88786155 10.81501424 17.59375 14.54296875 C17.92769005 16.94084381 17.81040745 19.14190615 17.6875 21.5625 C17.76484375 22.85800781 17.8421875 24.15351563 17.921875 25.48828125 C18.44030848 34.96897277 17.67873412 42.71879036 11.6875 50.5625 C7.08711263 55.26577874 2.0001823 58.26719746 -3.9375 61 C-4.67484375 61.36287109 -5.4121875 61.72574219 -6.171875 62.09960938 C-11.48700829 64.59048277 -11.48700829 64.59048277 -14.84765625 64.4765625 C-15.66105469 64.17492187 -16.47445312 63.87328125 -17.3125 63.5625 C-18.53582031 63.11777344 -19.75914062 62.67304688 -21.01953125 62.21484375 C-32.9123758 57.37073077 -40.14745091 52.42203721 -45.40234375 40.2734375 C-46.37365484 37.38034782 -46.89201159 34.58116419 -47.3125 31.5625 C-48.13234375 32.17738281 -48.9521875 32.79226562 -49.796875 33.42578125 C-52.96875 35.8046875 -56.140625 38.18359375 -59.3125 40.5625 C-60.06015625 41.15417969 -60.8078125 41.74585938 -61.578125 42.35546875 C-63.3125 43.5625 -63.3125 43.5625 -65.3125 43.5625 C-60.81738899 55.94566638 -54.97232893 65.21403958 -44.21875 73.00390625 C-43.5896875 73.51824219 -42.960625 74.03257812 -42.3125 74.5625 C-42.3125 75.2225 -42.3125 75.8825 -42.3125 76.5625 C-56.01400511 82.42160256 -69.74860922 88.1935351 -83.54882812 93.81607056 C-84.97139659 94.39571443 -86.39359935 94.97625664 -87.81542969 95.55770874 C-89.82109266 96.37732837 -91.82824689 97.19317431 -93.8359375 98.0078125 C-94.99013184 98.47719238 -96.14432617 98.94657227 -97.33349609 99.43017578 C-103.44058331 101.75148954 -109.15227796 102.63697549 -115.4375 100.5 C-119.59172393 97.70041431 -123.05638159 94.07473683 -125.3125 89.5625 C-125.80533882 84.16551094 -126.07143103 79.23847269 -123.8125 74.25 C-118.09686947 68.10569718 -111.57575361 63.19534339 -104.84765625 58.2109375 C-100.64080506 55.079184 -96.50985617 51.85085409 -92.375 48.625 C-90.81513886 47.40880967 -89.25524347 46.19266326 -87.6953125 44.9765625 C-86.57237793 44.10112793 -86.57237793 44.10112793 -85.42675781 43.20800781 C-79.10194392 38.28546213 -72.73856942 33.41282907 -66.3671875 28.55078125 C-65.67512207 28.02242676 -64.98305664 27.49407227 -64.27001953 26.94970703 C-62.83918361 25.85760759 -61.40786767 24.76613674 -59.97607422 23.67529297 C-56.15300485 20.75680824 -52.35189726 17.81405433 -48.578125 14.83203125 C-18.59265363 -8.83273046 -18.59265363 -8.83273046 0 0 Z " fill="#0C4696" transform="translate(214.3125,178.4375)"/>
<path d="M0 0 C2.91616587 1.35744869 5.34662063 2.91744175 7.87109375 4.90625 C8.96949585 5.76682007 8.96949585 5.76682007 10.09008789 6.64477539 C10.86473389 7.25699951 11.63937988 7.86922363 12.4375 8.5 C14.07010674 9.78021036 15.70292025 11.06015707 17.3359375 12.33984375 C18.13483398 12.96745605 18.93373047 13.59506836 19.75683594 14.24169922 C26.95354126 19.88282587 34.23369283 25.41743152 41.50048828 30.96777344 C42.98817594 32.10509403 44.47484764 33.24374491 45.96044922 34.38378906 C48.91323304 36.6491416 51.86783028 38.90325536 54.87109375 41.1015625 C63.29326616 47.32232391 68.73406764 54.62508499 71 65 C72.22218909 77.25930486 70.85457852 88.25867911 63.3125 98.375 C55.45708998 107.38561737 46.00093433 111.64922865 34.21484375 113.41796875 C19.94192004 114.19572748 4.4784644 104.97592074 -8.4375 99.5625 C-11.1050135 98.44757694 -13.77295981 97.33370253 -16.4413147 96.22079468 C-18.17110658 95.4991522 -19.90042493 94.77637351 -21.62924194 94.05239868 C-25.60118167 92.39356172 -29.5791533 90.7605736 -33.59033203 89.19873047 C-34.29215103 88.92463852 -34.99397003 88.65054657 -35.71705627 88.3681488 C-37.59021061 87.64124139 -39.466975 86.92365581 -41.34399414 86.20678711 C-44 85 -44 85 -45 83 C-44.48614746 82.77860352 -43.97229492 82.55720703 -43.44287109 82.32910156 C-41.0842452 81.30878219 -38.72964442 80.27947244 -36.375 79.25 C-35.56675781 78.90195312 -34.75851563 78.55390625 -33.92578125 78.1953125 C-30.26162474 76.58665842 -26.95827886 75.06949729 -23.7890625 72.609375 C-21 71 -21 71 -18.41235352 71.65478516 C-14.11891573 73.34734022 -9.86242786 75.11359492 -5.61328125 76.9140625 C-3.76932648 77.68336222 -1.92491032 78.45155679 -0.08007812 79.21875 C2.80278281 80.4182475 5.68274272 81.62297349 8.55541992 82.84667969 C11.34608433 84.03325763 14.14628499 85.19431756 16.94921875 86.3515625 C17.79232101 86.71714264 18.63542328 87.08272278 19.5040741 87.4593811 C26.73490726 90.40129793 33.94080582 91.40226708 41.4375 88.8125 C46.20138884 85.44292009 48.7901877 81.71911271 50 76 C50.22218963 69.24790405 48.42352792 65.04034056 44 60 C41.64775185 57.89338182 39.13993886 56.07037656 36.5625 54.25 C35.13435426 53.2110943 33.70729189 52.17069789 32.28125 51.12890625 C31.56582031 50.6095752 30.85039062 50.09024414 30.11328125 49.55517578 C26.27350242 46.72946053 22.53204552 43.7780103 18.82324219 40.78295898 C16.36195136 38.80342691 13.93642667 36.96138908 11.234375 35.3203125 C7.10192188 32.74752717 5.348902 31.11122898 3.859375 26.3671875 C2.99488058 22.27398164 2.50706928 18.15060739 2 14 C1.62496646 12.07915514 1.23284645 10.16144029 0.8125 8.25 C0.17737537 5.29641227 0 3.10013074 0 0 Z " fill="#F9FBFC" transform="translate(261,189)"/>
<path d="M0 0 C6.56323372 4.63287086 7.99545126 9.16593662 9.46386719 16.78222656 C11.07757017 26.34733415 12.15685397 35.99654487 13.3125 45.625 C13.57884697 47.8060605 13.84577011 49.98705073 14.11328125 52.16796875 C14.60267629 56.16412948 15.0887893 60.16065699 15.57080078 64.15771484 C16.09768443 68.52336597 16.63853093 72.88707309 17.1875 77.25 C16.29546875 76.90066406 15.4034375 76.55132812 14.484375 76.19140625 C13.31390625 75.73636719 12.1434375 75.28132813 10.9375 74.8125 C9.77734375 74.36003906 8.6171875 73.90757812 7.421875 73.44140625 C-3.39168265 69.45815132 -16.73792366 69.50851061 -27.4375 73.75 C-29.23080305 74.57980604 -31.02296815 75.41209211 -32.8125 76.25 C-33.4725 76.25 -34.1325 76.25 -34.8125 76.25 C-34.98173686 68.86454266 -34.33044648 61.73243295 -33.45703125 54.40234375 C-33.3135173 53.19107315 -33.17000336 51.97980255 -33.0221405 50.73182678 C-32.71677175 48.18240484 -32.40814383 45.63337139 -32.09643555 43.0847168 C-31.62631254 39.1983504 -31.18321597 35.30946244 -30.74023438 31.41992188 C-30.43917137 28.93469279 -30.13649118 26.44965897 -29.83203125 23.96484375 C-29.70472122 22.80943588 -29.57741119 21.65402802 -29.44624329 20.46360779 C-28.39943235 12.2885865 -26.33955962 6.60070664 -20.3125 0.875 C-13.60980796 -3.48174982 -7.16979688 -3.79305383 0 0 Z " fill="#0D4796" transform="translate(209.8125,84.75)"/>
<path d="M0 0 C0.33 0.99 0.66 1.98 1 3 C-4.75 7 -4.75 7 -7 7 C-6.65555119 9.47266765 -6.65555119 9.47266765 -6 12 C-5.34 12.33 -4.68 12.66 -4 13 C-4 12.34 -4 11.68 -4 11 C-1.75504292 9.87752146 -0.11556845 9.73168079 2.375 9.5 C5.3462775 9.22175328 8.11987066 8.78907653 11 8 C7.50104307 11.62806974 3.89085672 14.80523484 -0.125 17.875 C-1.15882813 18.67679688 -2.19265625 19.47859375 -3.2578125 20.3046875 C-4.16273438 20.86414063 -5.06765625 21.42359375 -6 22 C-6.99 21.67 -7.98 21.34 -9 21 C-8.67 20.34 -8.34 19.68 -8 19 C-8.66 18.67 -9.32 18.34 -10 18 C-9.01 17.67 -8.02 17.34 -7 17 C-9.25740623 14.66475218 -11.2805761 12.81294927 -14 11 C-9.38 7.37 -4.76 3.74 0 0 Z " fill="#144890" transform="translate(157,200)"/>
<path d="M0 0 C0.33 0.99 0.66 1.98 1 3 C0.00795408 4.33926199 -0.99426222 5.67098936 -2 7 C-3.12665928 9.63223984 -4.05313656 12.29467589 -5 15 C-5.99 15 -6.98 15 -8 15 C-8 15.66 -8 16.32 -8 17 C-7.34 17.33 -6.68 17.66 -6 18 C-6.45375 18.4125 -6.9075 18.825 -7.375 19.25 C-9.06787087 21.07309171 -9.92341764 22.77506312 -11 25 C-11.66 25.66 -12.32 26.32 -13 27 C-12.67 27.99 -12.34 28.98 -12 30 C-12.9375 32.1875 -12.9375 32.1875 -14 34 C-14.66 34 -15.32 34 -16 34 C-16.12375 34.5775 -16.2475 35.155 -16.375 35.75 C-17.00648824 38.02335767 -17.88858191 39.9253529 -19 42 C-19.66 42 -20.32 42 -21 42 C-22.19430235 38.41709295 -21.78669038 37.90078498 -20.2265625 34.60546875 C-19.81801025 33.73849365 -19.40945801 32.87151855 -18.98852539 31.97827148 C-18.31358032 30.5968396 -18.31358032 30.5968396 -17.625 29.1875 C-17.17181396 28.247854 -16.71862793 27.30820801 -16.25170898 26.34008789 C-11.65380293 16.9883739 -6.33809919 8.28522684 0 0 Z " fill="#194B8F" transform="translate(41,85)"/>
<path d="M0 0 C1.05032646 3.15097939 0.97070495 4.4726538 0.51855469 7.68896484 C0.38801697 8.64201508 0.25747925 9.59506531 0.12298584 10.57699585 C-0.02588074 11.61119659 -0.17474731 12.64539734 -0.328125 13.7109375 C-0.47779724 14.7888858 -0.62746948 15.86683411 -0.78167725 16.97744751 C-1.26464056 20.44424021 -1.75721256 23.90959153 -2.25 27.375 C-2.56703275 29.64053742 -2.88344559 31.90616168 -3.19921875 34.171875 C-5.10129491 47.78568584 -7.04915131 61.39310285 -9 75 C-9.33 75 -9.66 75 -10 75 C-10.18986279 69.58891041 -9.85239249 64.5470668 -9.0625 59.1875 C-7.71821325 49.82516249 -7.36432554 40.44370146 -7 31 C-6.34 30.67 -5.68 30.34 -5 30 C-4.35481946 27.22169114 -4.35481946 27.22169114 -3.96484375 23.84765625 C-3.79533203 22.59662109 -3.62582031 21.34558594 -3.45117188 20.05664062 C-3.27941613 18.72532892 -3.10819842 17.39394769 -2.9375 16.0625 C-2.59720612 13.46937849 -2.25053451 10.87724301 -1.90234375 8.28515625 C-1.75273193 7.12894775 -1.60312012 5.97273926 -1.44897461 4.78149414 C-1 2 -1 2 0 0 Z " fill="#254E8C" transform="translate(163,87)"/>
<path d="M0 0 C2.55747541 3.83621312 2.01294423 5.60198269 1.5625 10.125 C1.34019682 12.41355274 1.1437933 14.70517629 1 17 C1.33 17.33 1.66 17.66 2 18 C2.41513169 20.52412188 2.76421982 23.02379806 3.0625 25.5625 C3.19664307 26.6915979 3.19664307 26.6915979 3.33349609 27.84350586 C4.17874697 35.57231887 4.18807758 43.23657562 4 51 C3.67 51 3.34 51 3 51 C2.87882813 49.86304688 2.75765625 48.72609375 2.6328125 47.5546875 C1.84517551 40.26686411 1.03559727 32.99909323 -0.0625 25.75 C-2.92921264 6.04995073 -2.92921264 6.04995073 0 0 Z " fill="#16468A" transform="translate(251,165)"/>
<path d="M0 0 C-5.5 4 -5.5 4 -10 4 C-10 4.99 -10 5.98 -10 7 C-10.66 7 -11.32 7 -12 7 C-12 7.66 -12 8.32 -12 9 C-14.97 10.32 -17.94 11.64 -21 13 C-21 12.01 -21 11.02 -21 10 C-22.98 10 -24.96 10 -27 10 C-23.49644755 6.49644755 -18.59822428 5.16867559 -14.0625 3.3125 C-12.53979492 2.66958008 -12.53979492 2.66958008 -10.98632812 2.01367188 C-10.01244141 1.61341797 -9.03855469 1.21316406 -8.03515625 0.80078125 C-7.1419165 0.43122314 -6.24867676 0.06166504 -5.32836914 -0.3190918 C-3 -1 -3 -1 0 0 Z " fill="#144B94" transform="translate(192,271)"/>
<path d="M0 0 C0.99 0 1.98 0 3 0 C3.556875 1.2065625 3.556875 1.2065625 4.125 2.4375 C5.57323906 5.31338704 7.20547551 8.03576415 8.9375 10.75 C9.42089844 11.50796875 9.90429688 12.2659375 10.40234375 13.046875 C12.11726524 15.14335603 13.51368792 15.99043916 16 17 C16 18.66666667 16 20.33333333 16 22 C17.32 22 18.64 22 20 22 C21.07525194 24.65228812 22.09456151 27.28368454 23 30 C24.65 30 26.3 30 28 30 C28.33 31.32 28.66 32.64 29 34 C27.515 34.495 27.515 34.495 26 35 C15.80046372 24.41264865 6.6416977 13.21348278 0 0 Z " fill="#1D4986" transform="translate(32,300)"/>
<path d="M0 0 C0.625 1.8125 0.625 1.8125 1 4 C0.01 5.485 0.01 5.485 -1 7 C-2.66666667 7.33333333 -4.33333333 7.66666667 -6 8 C-6.99 9.485 -6.99 9.485 -8 11 C-8.99 11 -9.98 11 -11 11 C-11 11.66 -11 12.32 -11 13 C-11.66 13 -12.32 13 -13 13 C-13 18.28 -13 23.56 -13 29 C-13.66 29.33 -14.32 29.66 -15 30 C-17.09520176 25.80959648 -16.41377025 20.56346613 -16 16 C-12.88003316 9.11007322 -5.97774226 4.41659082 0 0 Z " fill="#244D89" transform="translate(105,240)"/>
<path d="M0 0 C0.66 0.99 1.32 1.98 2 3 C1.11687962 4.13500694 0.21781145 5.25761307 -0.6875 6.375 C-1.18636719 7.00148438 -1.68523437 7.62796875 -2.19921875 8.2734375 C-6.40143422 12.30245971 -11.31530656 12.47046349 -16.86328125 12.40234375 C-22.59342892 11.66734349 -27.75474269 9.33493171 -33 7 C-28.19251168 5.54224548 -24.98383975 7.10727211 -20.5 9.125 C-17.39196688 10.21281159 -15.27780503 10.40136388 -12 10 C-8.78170896 8.07706482 -8.78170896 8.07706482 -6 6 C-5.34 6 -4.68 6 -4 6 C-3.67 5.01 -3.34 4.02 -3 3 C-2.01 3 -1.02 3 0 3 C0 2.01 0 1.02 0 0 Z " fill="#1D4D8E" transform="translate(308,268)"/>
<path d="M0 0 C2.1055906 2.1055906 2.65367382 3.35466531 3.65625 6.10546875 C3.95660156 6.92466797 4.25695312 7.74386719 4.56640625 8.58789062 C4.87449219 9.44576172 5.18257813 10.30363281 5.5 11.1875 C5.96212891 12.44530273 5.96212891 12.44530273 6.43359375 13.72851562 C11.3490463 27.24073605 11.3490463 27.24073605 11 33 C7.67852481 30.38895145 7.28455503 27.73636436 6.5 23.6875 C5.51561607 18.99995746 4.27931359 15.23301095 2 11 C2 9.68 2 8.36 2 7 C0.68 7.33 -0.64 7.66 -2 8 C-2.33 7.34 -2.66 6.68 -3 6 C-2.67 5.34 -2.34 4.68 -2 4 C-1.34 4 -0.68 4 0 4 C0 2.68 0 1.36 0 0 Z " fill="#265191" transform="translate(379,120)"/>
<path d="M0 0 C0.66 0.33 1.32 0.66 2 1 C0.71937515 2.7074998 -0.61767557 4.37373596 -2 6 C-2.66 6 -3.32 6 -4 6 C-4.33 6.99 -4.66 7.98 -5 9 C-5.66 9 -6.32 9 -7 9 C-7.309375 10.11375 -7.61875 11.2275 -7.9375 12.375 C-9 16 -9 16 -10 18 C-10.99 17.67 -11.98 17.34 -13 17 C-13 16.34 -13 15.68 -13 15 C-13.45375 15.45375 -13.9075 15.9075 -14.375 16.375 C-15.58333333 17.58333333 -16.79166667 18.79166667 -18 20 C-18.66 19.34 -19.32 18.68 -20 18 C-15.13987805 12.84130401 -9.88371632 8.34819198 -4.35546875 3.91796875 C-1.99243296 2.06032914 -1.99243296 2.06032914 0 0 Z " fill="#1A498C" transform="translate(80,44)"/>
<path d="M0 0 C0 2 0 2 -2.375 4.5 C-3.674375 5.7375 -3.674375 5.7375 -5 7 C-5.66 7.66 -6.32 8.32 -7 9 C-7 9.99 -7 10.98 -7 12 C-14.71428571 16 -14.71428571 16 -19 16 C-5.68480726 0 -5.68480726 0 0 0 Z " fill="#ECF5FB" transform="translate(93,225)"/>
<path d="M0 0 C0.33 0 0.66 0 1 0 C1.33895656 1.72807318 1.67091525 3.45751974 2 5.1875 C2.185625 6.15042969 2.37125 7.11335937 2.5625 8.10546875 C2.96877612 10.7934206 3.07933572 13.28771019 3 16 C0.85101768 15.2169216 -1.29412095 14.42328757 -3.4375 13.625 C-4.63246094 13.18414062 -5.82742187 12.74328125 -7.05859375 12.2890625 C-10 11 -10 11 -11 9 C-7.7 9 -4.4 9 -1 9 C-1.20625 7.88625 -1.4125 6.7725 -1.625 5.625 C-1.810625 3.830625 -1.810625 3.830625 -2 2 C-1.34 1.34 -0.68 0.68 0 0 Z " fill="#144587" transform="translate(224,146)"/>
<path d="M0 0 C0.33 0 0.66 0 1 0 C1.76323105 10.34602092 1.32030596 18.26673558 -5 27 C-7.70703125 29.33203125 -7.70703125 29.33203125 -10 31 C-10 28.69 -10 26.38 -10 24 C-9.01 23.67 -8.02 23.34 -7 23 C-6.34 23.33 -5.68 23.66 -5 24 C-4.67 21.36 -4.34 18.72 -4 16 C-3.01 15.67 -2.02 15.34 -1 15 C-0.67 10.05 -0.34 5.1 0 0 Z " fill="#184888" transform="translate(231,202)"/>
<path d="M0 0 C1.96047829 3.37415652 2.52776871 6.45791294 3.0703125 10.3046875 C3.24433594 11.52800781 3.41835937 12.75132813 3.59765625 14.01171875 C3.77167969 15.28660156 3.94570312 16.56148437 4.125 17.875 C4.39763672 19.77572266 4.39763672 19.77572266 4.67578125 21.71484375 C5.44211947 27.19445014 6.10764706 32.45774395 6 38 C5.34 37.67 4.68 37.34 4 37 C2.25791728 30.35830962 1.57166844 23.62803226 0.875 16.8125 C0.78734375 15.95744873 0.6996875 15.10239746 0.609375 14.22143555 C0.15031153 9.45541273 -0.09069918 4.78762107 0 0 Z " fill="#2E5894" transform="translate(217,96)"/>
<path d="M0 0 C0.495 0.639375 0.99 1.27875 1.5 1.9375 C8.04915185 10.15996741 8.04915185 10.15996741 16 16.9375 C16.99 17.618125 17.98 18.29875 19 19 C19 19.66 19 20.32 19 21 C13.91136214 19.72784053 12.15442862 18.07023047 9 14 C8.13375 13.690625 7.2675 13.38125 6.375 13.0625 C4 12 4 12 2.6875 9 C2 6 2 6 2 4 C1.34 4 0.68 4 0 4 C0 2.68 0 1.36 0 0 Z " fill="#214D88" transform="translate(153,234)"/>
<path d="M0 0 C1.67542976 0.28604898 3.34385343 0.61781233 5 1 C4.98839844 1.69867188 4.97679687 2.39734375 4.96484375 3.1171875 C4.95582031 4.02726563 4.94679687 4.93734375 4.9375 5.875 C4.92589844 6.77992188 4.91429687 7.68484375 4.90234375 8.6171875 C4.83750743 11.0168585 4.83750743 11.0168585 6 13 C5.67 13.66 5.34 14.32 5 15 C4.34 15 3.68 15 3 15 C-1.68688577 5.3960689 -1.68688577 5.3960689 -1 1 C-0.67 0.67 -0.34 0.34 0 0 Z " fill="#1E4C96" transform="translate(169,210)"/>
<path d="M0 0 C1.26982793 3.80948378 0.61250534 6.86077393 0.00390625 10.73046875 C-0.10848892 11.48088943 -0.22088409 12.23131012 -0.33668518 13.00447083 C-0.69701337 15.39986853 -1.06712692 17.79363694 -1.4375 20.1875 C-1.68358886 21.81175119 -1.92903937 23.43609924 -2.17382812 25.06054688 C-2.77515198 29.04152609 -3.38525578 33.021072 -4 37 C-4.66 37 -5.32 37 -6 37 C-6.33 35.02 -6.66 33.04 -7 31 C-6.34 30.67 -5.68 30.34 -5 30 C-4.35481946 27.22169114 -4.35481946 27.22169114 -3.96484375 23.84765625 C-3.79533203 22.59662109 -3.62582031 21.34558594 -3.45117188 20.05664062 C-3.27941613 18.72532892 -3.10819842 17.39394769 -2.9375 16.0625 C-2.59720612 13.46937849 -2.25053451 10.87724301 -1.90234375 8.28515625 C-1.67792603 6.55084351 -1.67792603 6.55084351 -1.44897461 4.78149414 C-1 2 -1 2 0 0 Z " fill="#1C4987" transform="translate(163,87)"/>
<path d="M0 0 C0.99 0.33 1.98 0.66 3 1 C2.3709375 1.49628906 1.741875 1.99257813 1.09375 2.50390625 C-4.4010136 6.8649611 -9.76974414 11.32491096 -15 16 C-15.66 15.34 -16.32 14.68 -17 14 C-14.66666667 11.66666667 -12.33333333 9.33333333 -10 7 C-9.67 6.34 -9.34 5.68 -9 5 C-7.66923011 4.65657551 -6.33568021 4.32380126 -5 4 C-4.34 3.34 -3.68 2.68 -3 2 C-2.01 1.34 -1.02 0.68 0 0 Z " fill="#E3F3FB" transform="translate(84,39)"/>
<path d="M0 0 C0.66 0 1.32 0 2 0 C1.01437243 3.31529273 0.34552581 4.74949379 -2.5 6.8125 C-5 8 -5 8 -7 8 C-7.061875 8.598125 -7.12375 9.19625 -7.1875 9.8125 C-8.3236757 12.87143458 -10.17330142 13.55041099 -13 15 C-13.66 14.34 -14.32 13.68 -15 13 C-14.08476562 12.22914063 -13.16953125 11.45828125 -12.2265625 10.6640625 C-11.02600156 9.6510892 -9.82548292 8.63806576 -8.625 7.625 C-7.72007812 6.86316406 -7.72007812 6.86316406 -6.796875 6.0859375 C-6.21679688 5.59609375 -5.63671875 5.10625 -5.0390625 4.6015625 C-4.50490723 4.15119629 -3.97075195 3.70083008 -3.42041016 3.23681641 C-2.23658322 2.20600388 -1.10995961 1.10995961 0 0 Z " fill="#E6F3FB" transform="translate(332,344)"/>
<path d="M0 0 C0 0.66 0 1.32 0 2 C4.29 2 8.58 2 13 2 C9.88542423 5.11457577 7.50666961 4.96731164 3.125 5.25 C-0.86074951 5.20530001 -3.60231722 4.1546281 -7 2 C-7.33 1.34 -7.66 0.68 -8 0 C-4.94736336 -0.98120464 -3.05263664 -0.98120464 0 0 Z " fill="#234E91" transform="translate(103,275)"/>
<path d="M0 0 C1.31436035 -0.00193359 1.31436035 -0.00193359 2.65527344 -0.00390625 C6.90468253 0.06831237 9.80320014 0.24308196 13.5625 2.375 C12.94318604 2.35928955 12.32387207 2.3435791 11.68579102 2.32739258 C8.83228995 2.2643597 5.97893609 2.22579563 3.125 2.1875 C1.66416992 2.14979492 1.66416992 2.14979492 0.17382812 2.11132812 C-5.58220584 2.05357528 -10.15719455 2.57904693 -15.48461914 4.82299805 C-17.82357255 5.4841274 -19.16327369 5.14133265 -21.4375 4.375 C-14.38142795 0.74986206 -7.80250097 -0.01126308 0 0 Z " fill="#DCF0F8" transform="translate(200.4375,154.625)"/>
<path d="M0 0 C3.97497544 3.40712181 5.86793788 7.32760855 8 12 C6.35 11.67 4.7 11.34 3 11 C2.67 11.66 2.34 12.32 2 13 C2 12.34 2 11.68 2 11 C1.01 11.33 0.02 11.66 -1 12 C-1.36923077 7.44615385 -1.36923077 7.44615385 0.5 5.1875 C1.2425 4.5996875 1.2425 4.5996875 2 4 C1.01 3.67 0.02 3.34 -1 3 C-0.67 2.01 -0.34 1.02 0 0 Z " fill="#184A90" transform="translate(362,90)"/>
<path d="M0 0 C5.28 0.33 10.56 0.66 16 1 C15.67 1.99 15.34 2.98 15 4 C17.64 4 20.28 4 23 4 C23.33 4.66 23.66 5.32 24 6 C16.21152725 5.49014512 8.46076164 4.35188414 1 2 C0.67 1.34 0.34 0.68 0 0 Z " fill="#225091" transform="translate(146,387)"/>
<path d="M0 0 C0.90492188 0.30744141 0.90492188 0.30744141 1.828125 0.62109375 C3.02695312 1.02521484 3.02695312 1.02521484 4.25 1.4375 C5.03890625 1.70433594 5.8278125 1.97117187 6.640625 2.24609375 C14.28657643 4.68925373 22.13891809 4.69969339 30 3 C30 3.66 30 4.32 30 5 C25.72248566 6.18773351 21.6661463 6.25838056 17.25 6.3125 C16.08984375 6.35600586 16.08984375 6.35600586 14.90625 6.40039062 C8.91118632 6.46577303 5.18349342 5.00003558 0 2 C0 1.34 0 0.68 0 0 Z " fill="#224C88" transform="translate(274,297)"/>
<path d="M0 0 C0.33 0 0.66 0 1 0 C1 1.65 1 3.3 1 5 C1.66 5 2.32 5 3 5 C3.18175781 5.75925781 3.36351562 6.51851563 3.55078125 7.30078125 C3.92783203 8.79158203 3.92783203 8.79158203 4.3125 10.3125 C4.67794922 11.79169922 4.67794922 11.79169922 5.05078125 13.30078125 C6.01647944 16.04686129 6.92548532 17.06692951 9 19 C8.6875 21.1875 8.6875 21.1875 8 23 C7.34 23 6.68 23 6 23 C4.8003958 19.54574482 3.61739705 16.08603135 2.4375 12.625 C2.09525391 11.64015625 1.75300781 10.6553125 1.40039062 9.640625 C0.92182617 8.22910156 0.92182617 8.22910156 0.43359375 6.7890625 C0.13509521 5.91975098 -0.16340332 5.05043945 -0.47094727 4.15478516 C-1 2 -1 2 0 0 Z " fill="#1D4A8A" transform="translate(12,250)"/>
<path d="M0 0 C3.34082014 3.34082014 3.11868103 7.94849082 3.75 12.5 C3.90082031 13.47582031 4.05164063 14.45164063 4.20703125 15.45703125 C4.33980469 16.38902344 4.47257812 17.32101563 4.609375 18.28125 C4.73280273 19.13783203 4.85623047 19.99441406 4.98339844 20.87695312 C4.98887695 21.57755859 4.99435547 22.27816406 5 23 C4.34 23.66 3.68 24.32 3 25 C2.86722656 24.30132812 2.73445313 23.60265625 2.59765625 22.8828125 C2.42105469 21.97273438 2.24445313 21.06265625 2.0625 20.125 C1.88847656 19.22007812 1.71445312 18.31515625 1.53515625 17.3828125 C1.10036299 15.00043683 1.10036299 15.00043683 0 13 C-0.07092842 10.7927077 -0.08415025 8.58332548 -0.0625 6.375 C-0.05347656 5.18648437 -0.04445313 3.99796875 -0.03515625 2.7734375 C-0.02355469 1.85820312 -0.01195312 0.94296875 0 0 Z " fill="#2A5090" transform="translate(261,195)"/>
<path d="M0 0 C6.01826738 4.97161218 11.66337352 10.29829243 17 16 C17 16.33 17 16.66 17 17 C15.02 17 13.04 17 11 17 C10.896875 16.21625 10.79375 15.4325 10.6875 14.625 C10.22404978 11.66954819 10.22404978 11.66954819 7 10 C7 9.34 7 8.68 7 8 C6.34 8 5.68 8 5 8 C5 7.34 5 6.68 5 6 C4.360625 5.7525 3.72125 5.505 3.0625 5.25 C1 4 1 4 0.37109375 1.921875 C0.24863281 1.28765625 0.12617188 0.6534375 0 0 Z " fill="#1F4C8C" transform="translate(330,53)"/>
<path d="M0 0 C-5.5 4 -5.5 4 -10 4 C-10 4.99 -10 5.98 -10 7 C-13.62326739 8.2077558 -14.64146369 7.54311128 -18 6 C-15.05442083 4.03628055 -12.24961274 2.70234663 -9 1.3125 C-7.4221875 0.62607422 -7.4221875 0.62607422 -5.8125 -0.07421875 C-3 -1 -3 -1 0 0 Z " fill="#235192" transform="translate(192,271)"/>
<path d="M0 0 C0.66 0 1.32 0 2 0 C0.91999975 3.24000075 0.50216138 3.6336358 -2.16015625 5.48046875 C-2.78857422 5.92197266 -3.41699219 6.36347656 -4.06445312 6.81835938 C-5.05348633 7.49608398 -5.05348633 7.49608398 -6.0625 8.1875 C-6.72572266 8.65091797 -7.38894531 9.11433594 -8.07226562 9.59179688 C-9.71007505 10.73472863 -11.35442897 11.8682718 -13 13 C-13.33 12.34 -13.66 11.68 -14 11 C-12.71034824 9.62437146 -11.37310707 8.29233607 -10 7 C-9.34 7 -8.68 7 -8 7 C-7.731875 6.38125 -7.46375 5.7625 -7.1875 5.125 C-6 3 -6 3 -3 1 C-2.01 1.33 -1.02 1.66 0 2 C0 1.34 0 0.68 0 0 Z " fill="#204C88" transform="translate(142,184)"/>
<path d="M0 0 C1.32 0.66 2.64 1.32 4 2 C3.67 3.65 3.34 5.3 3 7 C1.68 7.33 0.36 7.66 -1 8 C-1 7.34 -1 6.68 -1 6 C-3.33075929 6.95865509 -3.33075929 6.95865509 -5 10 C-5.66 10 -6.32 10 -7 10 C-5.33248852 6.05860922 -2.77289351 3.2107188 0 0 Z " fill="#174C90" transform="translate(59,63)"/>
<path d="M0 0 C0.33 0.66 0.66 1.32 1 2 C3.64 1.67 6.28 1.34 9 1 C5.72901659 3.73251686 2.40117578 5.21683758 -1.5625 6.75 C-3.26599609 7.42289062 -3.26599609 7.42289062 -5.00390625 8.109375 C-8 9 -8 9 -11 8 C-8.69 7.01 -6.38 6.02 -4 5 C-4 4.34 -4 3.68 -4 3 C-2 1.375 -2 1.375 0 0 Z " fill="#1C4A8B" transform="translate(271,377)"/>
<path d="M0 0 C0.639375 0.680625 1.27875 1.36125 1.9375 2.0625 C5.04248704 5.18533179 8.50739163 7.79299769 12.01171875 10.44921875 C14 12 14 12 16 14 C12.48478927 13.34903505 10.0225326 11.87109161 7 10 C5.9275 9.5875 4.855 9.175 3.75 8.75 C1 7 1 7 0.125 3.3125 C0.08375 2.219375 0.0425 1.12625 0 0 Z " fill="#1D4A87" transform="translate(74,284)"/>
<path d="M0 0 C0.99 0 1.98 0 3 0 C4.04892238 1.63631892 5.04906703 3.30485863 6 5 C6.66 5.33 7.32 5.66 8 6 C8.144375 6.61875 8.28875 7.2375 8.4375 7.875 C8.81000722 10.09150063 8.81000722 10.09150063 10.5546875 11.33984375 C12 13 12 13 12.07421875 15.26171875 C11.94660156 16.06222656 11.81898438 16.86273438 11.6875 17.6875 C11.50767578 18.89986328 11.50767578 18.89986328 11.32421875 20.13671875 C11.21722656 20.75160156 11.11023438 21.36648437 11 22 C10.67 22 10.34 22 10 22 C9.67128906 20.74896484 9.67128906 20.74896484 9.3359375 19.47265625 C7.24139669 12.03959071 4.73898497 6.11329061 0 0 Z " fill="#1F4C89" transform="translate(228,73)"/>
<path d="M0 0 C1.75280733 0.42611351 3.50217435 0.86639267 5.25 1.3125 C6.22453125 1.55613281 7.1990625 1.79976562 8.203125 2.05078125 C10.98975665 2.99652356 12.77304368 4.10708713 15 6 C12.59454362 7.20272819 11.05003047 7.10071472 8.375 7.0625 C7.14910156 7.04896484 7.14910156 7.04896484 5.8984375 7.03515625 C4.95871094 7.01775391 4.95871094 7.01775391 4 7 C4 6.01 4 5.02 4 4 C2.68 3.34 1.36 2.68 0 2 C0 1.34 0 0.68 0 0 Z " fill="#1C4B8D" transform="translate(262,14)"/>
<path d="M0 0 C-5.445 4.455 -5.445 4.455 -11 9 C-11.66 8.67 -12.32 8.34 -13 8 C-12.6875 6.0625 -12.6875 6.0625 -12 4 C-11.01 3.67 -10.02 3.34 -9 3 C-8.34 2.01 -7.68 1.02 -7 0 C-2.625 -1.3125 -2.625 -1.3125 0 0 Z " fill="#1F4D8E" transform="translate(104,216)"/>
<path d="M0 0 C1.46067199 0.45082469 2.91848032 0.91093537 4.375 1.375 C5.18710938 1.63023437 5.99921875 1.88546875 6.8359375 2.1484375 C9 3 9 3 11 5 C7.3558226 7.4294516 5.28758728 7.16179575 1 7 C1 6.01 1 5.02 1 4 C0.6937566 2.66018514 0.36548445 1.32488113 0 0 Z " fill="#1B4995" transform="translate(206,176)"/>
<path d="M0 0 C1.11375 0.350625 2.2275 0.70125 3.375 1.0625 C6.80264476 2.37239331 6.80264476 2.37239331 9 1 C9.33 2.32 9.66 3.64 10 5 C11.65 5.33 13.3 5.66 15 6 C15.33 6.99 15.66 7.98 16 9 C15.01 9.495 15.01 9.495 14 10 C11.53857997 8.61286881 9.22149631 7.18623319 6.875 5.625 C6.21628906 5.19960938 5.55757813 4.77421875 4.87890625 4.3359375 C3.23027994 3.25733312 1.61219991 2.13232839 0 1 C0 0.67 0 0.34 0 0 Z " fill="#26528D" transform="translate(88,360)"/>
<path d="M0 0 C1.125 3.75 1.125 3.75 0 6 C-2.01671604 7.31695035 -4.09488455 8.49155031 -6.1875 9.68359375 C-8.30837594 10.95552831 -8.30837594 10.95552831 -9 14 C-10.65 13.67 -12.3 13.34 -14 13 C-12.948125 12.1646875 -12.948125 12.1646875 -11.875 11.3125 C-10.92625 10.549375 -9.9775 9.78625 -9 9 C-8.484375 8.59136719 -7.96875 8.18273437 -7.4375 7.76171875 C-4.51882777 5.40489092 -2.08470655 3.12705983 0 0 Z " fill="#204983" transform="translate(325,285)"/>
<path d="M0 0 C0.66 0.33 1.32 0.66 2 1 C-1.15743412 5.47303167 -5.106956 9.45791073 -10 12 C-12.25 11.6640625 -12.25 11.6640625 -14 11 C-13.07316406 10.28972656 -12.14632812 9.57945312 -11.19140625 8.84765625 C-9.98174158 7.91930895 -8.77210776 6.99092145 -7.5625 6.0625 C-6.95083984 5.59392578 -6.33917969 5.12535156 -5.70898438 4.64257812 C-2.75031115 2.44328176 -2.75031115 2.44328176 0 0 Z " fill="#E1F2FA" transform="translate(150,180)"/>
<path d="M0 0 C0.99 0 1.98 0 3 0 C2.80664062 0.556875 2.61328125 1.11375 2.4140625 1.6875 C1.08594985 5.57979053 -0.1426535 9.42696928 -1.0625 13.4375 C-2 17 -2 17 -4 19 C-3.59060025 12.23784552 -2.43046191 6.32837252 0 0 Z " fill="#224F8E" transform="translate(14,137)"/>
<path d="M0 0 C0.97563706 3.03531531 1.33315991 5.04965916 0 8 C-2.3984375 9.95703125 -2.3984375 9.95703125 -5.375 11.8125 C-6.35210937 12.43769531 -7.32921875 13.06289062 -8.3359375 13.70703125 C-11 15 -11 15 -14 14 C-13.11248047 13.48953125 -13.11248047 13.48953125 -12.20703125 12.96875 C-6.43831136 9.43035085 -3.05289398 6.04442325 0 0 Z " fill="#DEF0F9" transform="translate(229,222)"/>
<path d="M0 0 C1 2 1 2 0.50390625 3.796875 C-0.12948741 6.56613099 0.32012074 8.48995154 0.9375 11.25 C1.13214844 12.14203125 1.32679687 13.0340625 1.52734375 13.953125 C1.68332031 14.62859375 1.83929687 15.3040625 2 16 C-0.07535607 13.35971892 -1.72678097 10.77217731 -3.1875 7.75 C-3.53167969 7.04359375 -3.87585938 6.3371875 -4.23046875 5.609375 C-4.48441406 5.07828125 -4.73835938 4.5471875 -5 4 C-3.35 2.68 -1.7 1.36 0 0 Z " fill="#1C4D96" transform="translate(29,282)"/>
<path d="M0 0 C4.95 1.98 9.9 3.96 15 6 C14.34 6.66 13.68 7.32 13 8 C10.875 7.625 10.875 7.625 9 7 C9 6.34 9 5.68 9 5 C8.01 5 7.02 5 6 5 C6 5.66 6 6.32 6 7 C5.01 7 4.02 7 3 7 C3 6.01 3 5.02 3 4 C2.01 3.34 1.02 2.68 0 2 C0 1.34 0 0.68 0 0 Z " fill="#1D4B8E" transform="translate(231,279)"/>
<path d="M0 0 C1.22419163 3.93795909 0.48320272 6.16112237 -1 10 C-2.98 10.33 -4.96 10.66 -7 11 C-5.22054913 6.95579349 -2.60470327 3.53921513 0 0 Z " fill="#1C4D90" transform="translate(49,74)"/>
<path d="M0 0 C-0.33 1.65 -0.66 3.3 -1 5 C-1.99 5 -2.98 5 -4 5 C-4.33 5.66 -4.66 6.32 -5 7 C-7.97 6.505 -7.97 6.505 -11 6 C-3.8 0 -3.8 0 0 0 Z " fill="#1E4E95" transform="translate(116,23)"/>
<path d="M0 0 C4.07415167 1.40209544 6.98279823 3.34447678 10.3125 6.0625 C11.19550781 6.77535156 12.07851563 7.48820313 12.98828125 8.22265625 C13.65214844 8.80917969 14.31601562 9.39570313 15 10 C15 10.33 15 10.66 15 11 C13.35 11 11.7 11 10 11 C9.9175 10.38125 9.835 9.7625 9.75 9.125 C9.20077462 6.86279272 9.20077462 6.86279272 7.1875 5.875 C6.465625 5.58625 5.74375 5.2975 5 5 C2.8125 4.0625 2.8125 4.0625 1 3 C0.67 2.01 0.34 1.02 0 0 Z " fill="#224C8B" transform="translate(283,233)"/>
<path d="M0 0 C0.33 0.99 0.66 1.98 1 3 C-4.75 7 -4.75 7 -7 7 C-7.66 8.65 -8.32 10.3 -9 12 C-10.65 12 -12.3 12 -14 12 C-9.73412126 7.45890328 -4.96387672 3.75264754 0 0 Z " fill="#275291" transform="translate(157,200)"/>
<path d="M0 0 C0.94875 0.04125 1.8975 0.0825 2.875 0.125 C-0.27218888 3.3932346 -3.61852499 6.2560659 -7.125 9.125 C-7.785 8.795 -8.445 8.465 -9.125 8.125 C-3.92857143 0.15714286 -3.92857143 0.15714286 0 0 Z " fill="#184788" transform="translate(192.125,85.875)"/>
<path d="M0 0 C0.33 0 0.66 0 1 0 C0.4017071 8.00694114 -0.2470635 16.00605711 -1 24 C-1.33 24 -1.66 24 -2 24 C-2 20.37 -2 16.74 -2 13 C-2.66 12.67 -3.32 12.34 -4 12 C-3.34 12 -2.68 12 -2 12 C-1.855625 10.7625 -1.71125 9.525 -1.5625 8.25 C-1.21311498 5.43495501 -0.79620634 2.7298503 0 0 Z " fill="#E3F3FB" transform="translate(6,163)"/>
<path d="M0 0 C1.79158489 -0.02696365 3.58328473 -0.04637917 5.375 -0.0625 C6.37273437 -0.07410156 7.37046875 -0.08570313 8.3984375 -0.09765625 C11 0 11 0 13 1 C13 2.65 13 4.3 13 6 C8.71 4.35 4.42 2.7 0 1 C0 0.67 0 0.34 0 0 Z " fill="#385D95" transform="translate(214,156)"/>
<path d="M0 0 C2.29296875 0.8046875 2.29296875 0.8046875 5 2 C7.09449169 2.42573106 9.20003211 2.80000494 11.3125 3.125 C12.38113281 3.29257812 13.44976562 3.46015625 14.55078125 3.6328125 C15.35902344 3.75398438 16.16726563 3.87515625 17 4 C17 4.33 17 4.66 17 5 C9.68889006 5.3689719 3.78743178 4.81552726 -3 2 C-2.01 1.34 -1.02 0.68 0 0 Z " fill="#BFD6E8" transform="translate(281,297)"/>
<path d="M0 0 C7.65606218 -0.19355213 14.66258031 -0.3479743 22 2 C22.33 3.32 22.66 4.64 23 6 C22.42894531 5.72285156 21.85789063 5.44570312 21.26953125 5.16015625 C14.20162124 2.00263206 7.69713667 1.24128955 0 1 C0 0.67 0 0.34 0 0 Z " fill="#CADBEB" transform="translate(195,175)"/>
<path d="M0 0 C4.94563138 -0.49456314 7.86965706 0.6739645 12.0703125 3.02734375 C14.03616525 4.01822904 15.8524331 4.54662477 18 5 C18 5.66 18 6.32 18 7 C11.76559832 5.41039668 5.83712355 3.72399099 0 1 C0 0.67 0 0.34 0 0 Z " fill="#2E5690" transform="translate(127,381)"/>
<path d="M0 0 C0.66 0 1.32 0 2 0 C2.4803318 1.58298026 2.95921612 3.16639978 3.4375 4.75 C3.83775391 6.07257813 3.83775391 6.07257813 4.24609375 7.421875 C4.88468494 9.60565835 5.46775833 11.78835498 6 14 C5.01 13.67 4.02 13.34 3 13 C3 11.68 3 10.36 3 9 C2.34 9 1.68 9 1 9 C1 8.34 1 7.68 1 7 C0.34 7 -0.32 7 -1 7 C-0.67 4.69 -0.34 2.38 0 0 Z " fill="#275191" transform="translate(67,268)"/>
<path d="M0 0 C5.26053037 -0.31563182 8.44573816 0.33409063 13 3 C12.67 3.99 12.34 4.98 12 6 C8.04 4.35 4.08 2.7 0 1 C0 0.67 0 0.34 0 0 Z " fill="#DFF0F8" transform="translate(237,281)"/>
<path d="M0 0 C0.99 0.33 1.98 0.66 3 1 C6.68382769 1.13156527 9.49053585 1.16982138 13 0 C12.67 1.32 12.34 2.64 12 4 C7.02398374 5.71050559 3.57383705 4.00885647 -1 2 C-0.67 1.34 -0.34 0.68 0 0 Z " fill="#204E8C" transform="translate(259,266)"/>
<path d="M0 0 C0.66 0.33 1.32 0.66 2 1 C-0.08439082 4.12658623 -0.8463034 4.4231517 -4 6 C-4.99 7.485 -4.99 7.485 -6 9 C-6.66 9 -7.32 9 -8 9 C-8.33 9.99 -8.66 10.98 -9 12 C-9.66 11.67 -10.32 11.34 -11 11 C-9.52202738 7.32943063 -7.52384523 5.58914217 -4.375 3.25 C-3.55773437 2.63640625 -2.74046875 2.0228125 -1.8984375 1.390625 C-0.95871094 0.70226562 -0.95871094 0.70226562 0 0 Z " fill="#244D86" transform="translate(175,186)"/>
<path d="M0 0 C0 0.99 0 1.98 0 3 C-2.31193977 5.07277359 -4.02935582 6.00978527 -7 7 C-7.33 7.66 -7.66 8.32 -8 9 C-9.65 9 -11.3 9 -13 9 C-8.91266859 5.55131413 -4.56194093 2.76206846 0 0 Z " fill="#285292" transform="translate(103,29)"/>
<path d="M0 0 C-3.40712181 3.97497544 -7.32760855 5.86793788 -12 8 C-12.33 7.34 -12.66 6.68 -13 6 C-12.360625 5.731875 -11.72125 5.46375 -11.0625 5.1875 C-8.66868314 4.11332248 -8.66868314 4.11332248 -8 1 C-5.07175348 0.02391783 -3.04386724 -0.08226668 0 0 Z " fill="#204D8B" transform="translate(306,364)"/>
<path d="M0 0 C0 0.99 0 1.98 0 3 C-0.99 3.66 -1.98 4.32 -3 5 C-4.01187895 6.65948148 -5.0126546 8.32580562 -6 10 C-6.99 10.495 -6.99 10.495 -8 11 C-8.99 10.34 -9.98 9.68 -11 9 C-7.37 6.03 -3.74 3.06 0 0 Z " fill="#1E4E8A" transform="translate(140,213)"/>
<path d="M0 0 C3.37462715 0.54723683 5.08235 1.0549 8 3 C10.32108669 3.70812814 12.65377147 4.38024152 15 5 C15 5.99 15 6.98 15 8 C9.52067211 6.45454854 4.88570819 3.84456788 0 1 C0 0.67 0 0.34 0 0 Z " fill="#2A528E" transform="translate(104,370)"/>
<path d="M0 0 C1.65 0.33 3.3 0.66 5 1 C3.02 3.31 1.04 5.62 -1 8 C-1.66 6.68 -2.32 5.36 -3 4 C-2.67 3.34 -2.34 2.68 -2 2 C-1.34 2 -0.68 2 0 2 C0 1.34 0 0.68 0 0 Z " fill="#215398" transform="translate(337,334)"/>
<path d="M0 0 C1.4540625 0.0309375 1.4540625 0.0309375 2.9375 0.0625 C0.0773269 2.9226731 -3.45434838 3.83995477 -7.1875 5.1875 C-7.94160156 5.46464844 -8.69570312 5.74179687 -9.47265625 6.02734375 C-11.33413121 6.71067 -13.19808602 7.38723389 -15.0625 8.0625 C-15.0625 7.4025 -15.0625 6.7425 -15.0625 6.0625 C-14.28003906 5.71316406 -13.49757812 5.36382812 -12.69140625 5.00390625 C-11.67949219 4.54886719 -10.66757813 4.09382813 -9.625 3.625 C-8.61566406 3.17253906 -7.60632813 2.72007812 -6.56640625 2.25390625 C-1.91149329 0.03901007 -1.91149329 0.03901007 0 0 Z " fill="#D9EDF9" transform="translate(191.0625,267.9375)"/>
<path d="M0 0 C4.45836229 0.50952712 6.58451895 2.19755401 10 5 C12.18214568 5.77833534 12.18214568 5.77833534 14 6 C14 6.66 14 7.32 14 8 C8.9424153 7.52585143 4.98999203 4.99249402 1 2 C0.67 1.34 0.34 0.68 0 0 Z " fill="#23498C" transform="translate(178,231)"/>
<path d="M0 0 C0.33 1.32 0.66 2.64 1 4 C-1.97 3.505 -1.97 3.505 -5 3 C-5.33 3.99 -5.66 4.98 -6 6 C-7.65 5.67 -9.3 5.34 -11 5 C-7.72709962 2.33319229 -4.35126896 0 0 0 Z " fill="#1F4D8D" transform="translate(203,265)"/>
<path d="M0 0 C1.32 0.66 2.64 1.32 4 2 C2.25705322 2.86846831 0.50531337 3.71930627 -1.25 4.5625 C-2.22453125 5.03816406 -3.1990625 5.51382812 -4.203125 6.00390625 C-7.09856297 7.03510273 -8.19966161 7.11346788 -11 6 C-10.28972656 5.65066406 -9.57945312 5.30132812 -8.84765625 4.94140625 C-7.92855469 4.48636719 -7.00945312 4.03132813 -6.0625 3.5625 C-4.68771484 2.88380859 -4.68771484 2.88380859 -3.28515625 2.19140625 C-1.09471096 1.19474606 -1.09471096 1.19474606 0 0 Z " fill="#D6E9F5" transform="translate(240,260)"/>
<path d="M0 0 C2.4375 0.75 2.4375 0.75 5 2 C5.9375 4 5.9375 4 6 6 C5.34 6.66 4.68 7.32 4 8 C2.35 6.68 0.7 5.36 -1 4 C-0.67 2.68 -0.34 1.36 0 0 Z " fill="#1B4D8F" transform="translate(305,218)"/>
<path d="M0 0 C3.0916909 2.52956528 3.90931332 5.22454612 5 9 C3.68 10.32 2.36 11.64 1 13 C0.67 11.68 0.34 10.36 0 9 C0.66 8.67 1.32 8.34 2 8 C1.34 5.36 0.68 2.72 0 0 Z " fill="#1E4C8F" transform="translate(370,103)"/>
<path d="M0 0 C0.33 0.66 0.66 1.32 1 2 C-0.97583004 7.23013834 -3.66637965 9.72570907 -8 13 C-6.53181332 9.89257577 -4.79975 7.09528261 -2.875 4.25 C-2.33617187 3.45078125 -1.79734375 2.6515625 -1.2421875 1.828125 C-0.62730469 0.92320312 -0.62730469 0.92320312 0 0 Z " fill="#DEEEF9" transform="translate(366,304)"/>
<path d="M0 0 C5.66442374 0.36504064 10.00703705 1.0554321 15 4 C15 4.66 15 5.32 15 6 C4.44191344 2.92482916 4.44191344 2.92482916 0 1 C0 0.67 0 0.34 0 0 Z " fill="#2D5591" transform="translate(275,274)"/>
<path d="M0 0 C0.33 0 0.66 0 1 0 C1 1.98 1 3.96 1 6 C0.34 6 -0.32 6 -1 6 C-1 6.66 -1 7.32 -1 8 C-2.65 8 -4.3 8 -6 8 C-5.02471263 6.66382648 -4.04466681 5.3311249 -3.0625 4 C-2.24458984 2.88625 -2.24458984 2.88625 -1.41015625 1.75 C-0.94480469 1.1725 -0.47945312 0.595 0 0 Z " fill="#224D89" transform="translate(245,237)"/>
<path d="M0 0 C1.32 0.33 2.64 0.66 4 1 C-0.455 4.465 -0.455 4.465 -5 8 C-5.33 7.01 -5.66 6.02 -6 5 C-5.67 4.34 -5.34 3.68 -5 3 C-2.4375 2.375 -2.4375 2.375 0 2 C0 1.34 0 0.68 0 0 Z " fill="#25508F" transform="translate(124,197)"/>
<path d="M0 0 C3.43595166 1.52708963 6.11912454 3.59927045 9 6 C8.67 7.32 8.34 8.64 8 10 C7.4225 9.236875 6.845 8.47375 6.25 7.6875 C4.16642802 4.99108421 4.16642802 4.99108421 1.75 3.3125 C1.1725 2.879375 0.595 2.44625 0 2 C0 1.34 0 0.68 0 0 Z " fill="#2C578E" transform="translate(222,185)"/>
<path d="M0 0 C0.99 0.33 1.98 0.66 3 1 C-0.96 4.465 -0.96 4.465 -5 8 C-5.66 7.34 -6.32 6.68 -7 6 C-2.25 1.125 -2.25 1.125 0 0 Z " fill="#DBEAF6" transform="translate(74,47)"/>
<path d="M0 0 C2.56780471 3.8415976 2.22688882 7.8139175 2.125 12.25 C2.11597656 12.99507813 2.10695313 13.74015625 2.09765625 14.5078125 C2.07418358 16.33868059 2.03831525 18.16938238 2 20 C1.67 20 1.34 20 1 20 C1 15.38 1 10.76 1 6 C0.34 6 -0.32 6 -1 6 C-0.67 4.02 -0.34 2.04 0 0 Z " fill="#E0F1F9" transform="translate(330,250)"/>
<path d="M0 0 C0.66 0.33 1.32 0.66 2 1 C-0.97 3.64 -3.94 6.28 -7 9 C-7.99 8.67 -8.98 8.34 -10 8 C-6.7 5.36 -3.4 2.72 0 0 Z " fill="#DEEEFA" transform="translate(116,206)"/>
<path d="M0 0 C-0.33 1.65 -0.66 3.3 -1 5 C-1.99 5 -2.98 5 -4 5 C-5.70532323 6.94009522 -5.70532323 6.94009522 -7 9 C-7.66 8.34 -8.32 7.68 -9 7 C-7.88121617 5.82737096 -6.75476949 4.66204862 -5.625 3.5 C-4.68527344 2.52546875 -4.68527344 2.52546875 -3.7265625 1.53125 C-2 0 -2 0 0 0 Z " fill="#2D5894" transform="translate(69,55)"/>
<path d="M0 0 C0.66 0 1.32 0 2 0 C2 0.66 2 1.32 2 2 C2.66 2.33 3.32 2.66 4 3 C1.69 4.65 -0.62 6.3 -3 8 C-1.125 1.125 -1.125 1.125 0 0 Z " fill="#204A8E" transform="translate(324,346)"/>
<path d="M0 0 C0 0.66 0 1.32 0 2 C0.99 2.33 1.98 2.66 3 3 C2.01 4.485 2.01 4.485 1 6 C0.01 6 -0.98 6 -2 6 C-2.66 4.35 -3.32 2.7 -4 1 C-2 0 -2 0 0 0 Z " fill="#164B8E" transform="translate(342,329)"/>
<path d="M0 0 C-4.29 1.65 -8.58 3.3 -13 5 C-13 4.34 -13 3.68 -13 3 C-8.71127697 -0.0633736 -5.11799445 -1.70599815 0 0 Z " fill="#DFF4FD" transform="translate(133,294)"/>
<path d="M0 0 C0.99 0.33 1.98 0.66 3 1 C2.60196439 3.88575819 2.20990931 4.82189513 -0.0625 6.75 C-0.701875 7.1625 -1.34125 7.575 -2 8 C-2 5.69 -2 3.38 -2 1 C-1.34 0.67 -0.68 0.34 0 0 Z " fill="#205093" transform="translate(223,225)"/>
<path d="M0 0 C0.33 0 0.66 0 1 0 C1.22174933 1.45635371 1.42698698 2.91522956 1.625 4.375 C1.74101562 5.18710938 1.85703125 5.99921875 1.9765625 6.8359375 C1.98429688 7.55007812 1.99203125 8.26421875 2 9 C1.34 9.66 0.68 10.32 0 11 C-0.6425235 13.06874034 -0.6425235 13.06874034 -1 15 C-1.66 15 -2.32 15 -3 15 C-2.01 10.05 -1.02 5.1 0 0 Z " fill="#E4F4FB" transform="translate(233,207)"/>
<path d="M0 0 C1.32 0.33 2.64 0.66 4 1 C4.12375 1.78375 4.2475 2.5675 4.375 3.375 C4.79117993 6.14057822 4.79117993 6.14057822 7 8 C4 8 4 8 1.8125 6 C1.214375 5.34 0.61625 4.68 0 4 C0.66 4 1.32 4 2 4 C1.34 2.68 0.68 1.36 0 0 Z " fill="#1C4C92" transform="translate(264,186)"/>
<path d="M0 0 C0 0.66 0 1.32 0 2 C0.66 2.33 1.32 2.66 2 3 C-0.64 3.66 -3.28 4.32 -6 5 C-6.33 3.68 -6.66 2.36 -7 1 C-4.50935112 0.31292445 -2.62113708 0 0 0 Z " fill="#1F4A98" transform="translate(188,153)"/>
<path d="M0 0 C2.31 0 4.62 0 7 0 C6.01 0.66 5.02 1.32 4 2 C2.989375 2.680625 1.97875 3.36125 0.9375 4.0625 C-2 6 -2 6 -4 7 C-4 5.68 -4 4.36 -4 3 C-3.01 2.67 -2.02 2.34 -1 2 C-0.67 1.34 -0.34 0.68 0 0 Z " fill="#DBF1FA" transform="translate(190,82)"/>
<path d="M0 0 C-2.85584773 1.90389849 -4.9311762 2.69462177 -8.1875 3.625 C-9.08855469 3.88539062 -9.98960937 4.14578125 -10.91796875 4.4140625 C-11.94857422 4.70410156 -11.94857422 4.70410156 -13 5 C-13 3 -13 3 -11.5625 1.375 C-7.78022773 -0.65451195 -4.20719164 -0.24272259 0 0 Z " fill="#E1F3FB" transform="translate(142,12)"/>
<path d="M0 0 C-2.31 1.65 -4.62 3.3 -7 5 C-7 3.02 -7 1.04 -7 -1 C-3.51418144 -2.2020064 -3.32007656 -2.21338437 0 0 Z " fill="#1C4C8D" transform="translate(335,343)"/>
<path d="M0 0 C1.32 0.33 2.64 0.66 4 1 C-0.455 3.97 -0.455 3.97 -5 7 C-5.33 6.01 -5.66 5.02 -6 4 C-5.195625 3.525625 -4.39125 3.05125 -3.5625 2.5625 C-1.15246512 1.23099846 -1.15246512 1.23099846 0 0 Z " fill="#D8EEF7" transform="translate(316,291)"/>
<path d="M0 0 C0.99 0.33 1.98 0.66 3 1 C3 1.66 3 2.32 3 3 C4.98 3 6.96 3 9 3 C6.83735215 5.16264785 6.01811422 5.82246387 3 6 C0.75 4.0625 0.75 4.0625 -1 2 C-0.67 1.34 -0.34 0.68 0 0 Z " fill="#1C4A8D" transform="translate(129,265)"/>
<path d="M0 0 C0.33 0 0.66 0 1 0 C0.67 5.61 0.34 11.22 0 17 C-0.33 17 -0.66 17 -1 17 C-1.33 12.38 -1.66 7.76 -2 3 C-1.34 3 -0.68 3 0 3 C0 2.01 0 1.02 0 0 Z " fill="#2B5699" transform="translate(333,249)"/>
<path d="M0 0 C-2.92811859 2.49432325 -5.13263984 3.71702243 -9 4 C-11.8125 3.0625 -11.8125 3.0625 -14 2 C-9.26969248 0.77362398 -4.91220685 -0.14034877 0 0 Z " fill="#2B548F" transform="translate(208,239)"/>
<path d="M0 0 C0.33 0.66 0.66 1.32 1 2 C0.38125 2.5775 -0.2375 3.155 -0.875 3.75 C-2.81347053 5.80249821 -3.90014249 7.43366582 -5 10 C-5.33 8.02 -5.66 6.04 -6 4 C-4.02 2.68 -2.04 1.36 0 0 Z " fill="#DAEEF9" transform="translate(155,218)"/>
<path d="M0 0 C0.99 0.33 1.98 0.66 3 1 C3.05399736 2.45792884 3.09279177 3.91642712 3.125 5.375 C3.14820313 6.18710938 3.17140625 6.99921875 3.1953125 7.8359375 C3 10 3 10 1 12 C0.67 8.04 0.34 4.08 0 0 Z " fill="#2D5694" transform="translate(250,182)"/>
<path d="M0 0 C-1 3 -1 3 -2.99609375 4.203125 C-3.80175781 4.54859375 -4.60742188 4.8940625 -5.4375 5.25 C-6.24058594 5.60578125 -7.04367188 5.9615625 -7.87109375 6.328125 C-10 7 -10 7 -12 6 C-10.37829621 4.99466333 -8.75252763 3.99588093 -7.125 3 C-5.76761719 2.1646875 -5.76761719 2.1646875 -4.3828125 1.3125 C-2 0 -2 0 0 0 Z " fill="#2E508D" transform="translate(191,177)"/>
<path d="M0 0 C0.33 0 0.66 0 1 0 C1 1.65 1 3.3 1 5 C1.99 5.33 2.98 5.66 4 6 C3.67 7.32 3.34 8.64 3 10 C2.34 10 1.68 10 1 10 C0 8 -1 6 -2 4 C-1.0625 1.875 -1.0625 1.875 0 0 Z " fill="#E7F2F2" transform="translate(73,242)"/>
<path d="M0 0 C0.625 1.8125 0.625 1.8125 1 4 C0.01 5.485 0.01 5.485 -1 7 C-2.32 6.67 -3.64 6.34 -5 6 C-3.86695008 2.60085025 -2.87481525 1.94745549 0 0 Z " fill="#1F4B96" transform="translate(105,240)"/>
<path d="M0 0 C4.16550041 2.08275021 5.14638809 2.90254209 7 7 C6.67 8.32 6.34 9.64 6 11 C4.02 7.37 2.04 3.74 0 0 Z " fill="#DEEFF8" transform="translate(361,87)"/>
<path d="M0 0 C6.42857143 4.14285714 6.42857143 4.14285714 9 7 C7.35 7 5.7 7 4 7 C4 6.01 4 5.02 4 4 C2.68 3.67 1.36 3.34 0 3 C0 2.01 0 1.02 0 0 Z " fill="#23508E" transform="translate(315,41)"/>
<path d="M0 0 C-0.99 1.485 -0.99 1.485 -2 3 C-4.3828125 3.29296875 -4.3828125 3.29296875 -7.125 3.1875 C-8.03507813 3.16042969 -8.94515625 3.13335937 -9.8828125 3.10546875 C-10.58148438 3.07066406 -11.28015625 3.03585937 -12 3 C-7.78372195 0.18914797 -4.97048208 -0.11045516 0 0 Z " fill="#2B5793" transform="translate(154,10)"/>
<path d="M0 0 C0 4.07746885 -1.52068051 5.83198065 -4 9 C-6.140625 9.6796875 -6.140625 9.6796875 -8 10 C-7.04367001 8.70684939 -6.08486149 7.41553147 -5.125 6.125 C-4.59132813 5.40570313 -4.05765625 4.68640625 -3.5078125 3.9453125 C-2 2 -2 2 0 0 Z " fill="#CFE1F1" transform="translate(352,323)"/>
<path d="M0 0 C2.31 0.66 4.62 1.32 7 2 C6.67 2.66 6.34 3.32 6 4 C6.27942455 5.67654729 6.60828247 7.34608154 7 9 C4.03595495 6.19195732 1.55500981 3.81684226 0 0 Z " fill="#28508A" transform="translate(41,314)"/>
<path d="M0 0 C5.94 2.475 5.94 2.475 12 5 C8.6699024 6.11003253 8.02156559 5.9343162 4.875 4.75 C4.17117187 4.49734375 3.46734375 4.2446875 2.7421875 3.984375 C1 3 1 3 0 0 Z " fill="#D6EAF5" transform="translate(182,235)"/>
<path d="M0 0 C0 3 0 3 -1 5 C-1.99 5 -2.98 5 -4 5 C-4 5.99 -4 6.98 -4 8 C-5.65 8 -7.3 8 -9 8 C-6.17493137 5.0702992 -3.21203935 2.49825283 0 0 Z " fill="#255090" transform="translate(123,226)"/>
<path d="M0 0 C5.41342681 1.14514798 7.9342948 2.34012809 11 7 C7.41584854 7 6.58796261 6.21108216 3.8125 4.0625 C3.09707031 3.51722656 2.38164062 2.97195312 1.64453125 2.41015625 C1.10183594 1.94480469 0.55914062 1.47945312 0 1 C0 0.67 0 0.34 0 0 Z " fill="#325794" transform="translate(270,195)"/>
<path d="M0 0 C0.99 0.66 1.98 1.32 3 2 C0.36 3.98 -2.28 5.96 -5 8 C-5 4 -5 4 -3 2 C-2.01 2 -1.02 2 0 2 C0 1.34 0 0.68 0 0 Z " fill="#294F91" transform="translate(177,66)"/>
<path d="M0 0 C0.33 0.99 0.66 1.98 1 3 C-1.3125 6.1875 -1.3125 6.1875 -4 9 C-4.66 9 -5.32 9 -6 9 C-6 8.34 -6 7.68 -6 7 C-5.34 7 -4.68 7 -4 7 C-4 5.68 -4 4.36 -4 3 C-3.01 2.67 -2.02 2.34 -1 2 C-0.67 1.34 -0.34 0.68 0 0 Z " fill="#1E4687" transform="translate(352,320)"/>
<path d="M0 0 C0.99 0.33 1.98 0.66 3 1 C2.19152271 2.16945792 1.37810888 3.33550461 0.5625 4.5 C0.11003906 5.1496875 -0.34242188 5.799375 -0.80859375 6.46875 C-1.20175781 6.9740625 -1.59492188 7.479375 -2 8 C-2.33 8 -2.66 8 -3 8 C-3.36923077 3.44615385 -3.36923077 3.44615385 -1.5 1.1875 C-1.005 0.795625 -0.51 0.40375 0 0 Z " fill="#224D8E" transform="translate(367,298)"/>
<path d="M0 0 C4 2 4 2 4.828125 3.9453125 C5.21875 5.96354167 5.609375 7.98177083 6 10 C5.34 10 4.68 10 4 10 C2.68 6.7 1.36 3.4 0 0 Z " fill="#22488C" transform="translate(327,242)"/>
<path d="M0 0 C2.31 1.98 4.62 3.96 7 6 C5.68 6.33 4.36 6.66 3 7 C0 3.375 0 3.375 0 0 Z " fill="#D9ECF8" transform="translate(174,228)"/>
<path d="M0 0 C0.33 0.99 0.66 1.98 1 3 C-0.1875 4.5 -0.1875 4.5 -2 6 C-4.6875 6.1875 -4.6875 6.1875 -7 6 C-2.25 1.125 -2.25 1.125 0 0 Z " fill="#E0EFF8" transform="translate(135,192)"/>
<path d="M0 0 C0.66 0.33 1.32 0.66 2 1 C1.01 2.485 1.01 2.485 0 4 C-3.625 4.6875 -3.625 4.6875 -7 5 C-4.63707344 2.47411298 -3.33537489 1.11179163 0 0 Z " fill="#E2F2FB" transform="translate(186,64)"/>
<path d="M0 0 C-0.33 0.66 -0.66 1.32 -1 2 C-5.455 1.01 -5.455 1.01 -10 0 C-10 -0.33 -10 -0.66 -10 -1 C-5.92224809 -1.9267618 -3.57818963 -2.33958553 0 0 Z " fill="#D9EAF5" transform="translate(268,13)"/>
<path d="M0 0 C0.33 0.99 0.66 1.98 1 3 C1.99 3.33 2.98 3.66 4 4 C1.25 4.6875 1.25 4.6875 -2 5 C-4.375 3.5625 -4.375 3.5625 -6 2 C-4.02 2 -2.04 2 0 2 C0 1.34 0 0.68 0 0 Z " fill="#1C4D90" transform="translate(126,376)"/>
<path d="M0 0 C2.31 1.98 4.62 3.96 7 6 C6.34 6.66 5.68 7.32 5 8 C4.34 7.67 3.68 7.34 3 7 C3 6.01 3 5.02 3 4 C2.01 3.67 1.02 3.34 0 3 C0 2.01 0 1.02 0 0 Z " fill="#D6E7F7" transform="translate(57,334)"/>
<path d="M0 0 C-5.625 4 -5.625 4 -9 4 C-8 1 -8 1 -5.625 -0.25 C-3 -1 -3 -1 0 0 Z " fill="#1D4C88" transform="translate(192,271)"/>
<path d="M0 0 C2.31 0.66 4.62 1.32 7 2 C4.61426621 3.89213369 2.92824652 5.02391783 0 6 C0 4.02 0 2.04 0 0 Z " fill="#1D4B8F" transform="translate(217,266)"/>
<path d="M0 0 C-2.97 1.32 -5.94 2.64 -9 4 C-9 3.01 -9 2.02 -9 1 C-3.375 -1.125 -3.375 -1.125 0 0 Z " fill="#23508D" transform="translate(235,264)"/>
<path d="M0 0 C-2.93828597 2.50298434 -5.17902761 3.46930939 -9 4 C-9 3.01 -9 2.02 -9 1 C-5.92677456 0.08941469 -3.19902639 -0.08886184 0 0 Z " fill="#335591" transform="translate(148,264)"/>
<path d="M0 0 C0.33 0.99 0.66 1.98 1 3 C0.67 3.66 0.34 4.32 0 5 C-0.22467831 6.53668865 -0.40796805 8.07968054 -0.5625 9.625 C-0.64628906 10.44226563 -0.73007813 11.25953125 -0.81640625 12.1015625 C-0.87699219 12.72804688 -0.93757813 13.35453125 -1 14 C-1.33 14 -1.66 14 -2 14 C-2.05389087 12.04196493 -2.09274217 10.08351091 -2.125 8.125 C-2.14820312 7.03445313 -2.17140625 5.94390625 -2.1953125 4.8203125 C-2 2 -2 2 0 0 Z " fill="#D2E2F1" transform="translate(90,251)"/>
<path d="M0 0 C4.83256305 0.41421969 6.82679218 2.46413986 10 6 C6.62972148 6 5.93297304 5.50175992 3.3125 3.5625 C2.68988281 3.11003906 2.06726563 2.65757812 1.42578125 2.19140625 C0.95527344 1.79824219 0.48476563 1.40507812 0 1 C0 0.67 0 0.34 0 0 Z " fill="#D9E8F7" transform="translate(281,230)"/>
<path d="M0 0 C0.66 0.33 1.32 0.66 2 1 C0.94124926 4.40312738 -0.00902154 7.01353231 -2 10 C-2.66 9.67 -3.32 9.34 -4 9 C-2.68 6.03 -1.36 3.06 0 0 Z " fill="#224D8C" transform="translate(251,224)"/>
<path d="M0 0 C2.4375 0.375 2.4375 0.375 5 1 C5.33 1.66 5.66 2.32 6 3 C4.68 2.67 3.36 2.34 2 2 C2 2.99 2 3.98 2 5 C1.01 5 0.02 5 -1 5 C-0.67 3.35 -0.34 1.7 0 0 Z " fill="#124685" transform="translate(259,187)"/>
<path d="M0 0 C2.78637633 4.1795645 1.79562512 6.14668677 1 11 C0.67 11 0.34 11 0 11 C-0.66 7.7 -1.32 4.4 -2 1 C-1.34 0.67 -0.68 0.34 0 0 Z " fill="#2A5595" transform="translate(238,84)"/>
<path d="M0 0 C0 0.66 0 1.32 0 2 C0.66 2.33 1.32 2.66 2 3 C-1.63 2.67 -5.26 2.34 -9 2 C-5.5647952 -0.29013653 -4.014669 -0.17842973 0 0 Z " fill="#355C9B" transform="translate(203,82)"/>
<path d="M0 0 C2.0625 0.4375 2.0625 0.4375 4 1 C3.625 2.9375 3.625 2.9375 3 5 C2.01 5.495 2.01 5.495 1 6 C0.34 4.35 -0.32 2.7 -1 1 C-0.67 0.67 -0.34 0.34 0 0 Z " fill="#18498F" transform="translate(354,313)"/>
<path d="M0 0 C2 2 2 2 2 5 C1.34 5 0.68 5 0 5 C-0.33 5.66 -0.66 6.32 -1 7 C-1.66 6.67 -2.32 6.34 -3 6 C-1.125 1.125 -1.125 1.125 0 0 Z " fill="#104689" transform="translate(149,226)"/>
<path d="M0 0 C2.375 0.1875 2.375 0.1875 5 1 C6.3125 3.5625 6.3125 3.5625 7 6 C1.125 2.25 1.125 2.25 0 0 Z " fill="#214F8A" transform="translate(311,226)"/>
<path d="M0 0 C0.33 0 0.66 0 1 0 C1 1.98 1 3.96 1 6 C2.65 6 4.3 6 6 6 C2.25 9 2.25 9 0 9 C0 6.03 0 3.06 0 0 Z " fill="#405E8D" transform="translate(175,152)"/>
<path d="M0 0 C0.66 0.66 1.32 1.32 2 2 C1.61121812 5.01305957 0.73543126 6.39685311 -1 9 C-1.66 8.67 -2.32 8.34 -3 8 C-2.01 5.36 -1.02 2.72 0 0 Z " fill="#25528E" transform="translate(18,126)"/>
<path d="M0 0 C0.99 0 1.98 0 3 0 C2.67 2.64 2.34 5.28 2 8 C-0.1519437 4.77208445 -0.20086443 3.71599191 0 0 Z " fill="#12448D" transform="translate(180,117)"/>
<path d="M0 0 C3.4375 0.8125 3.4375 0.8125 7 2 C7.33 2.99 7.66 3.98 8 5 C5 5 5 5 2.3125 2.5 C1.549375 1.675 0.78625 0.85 0 0 Z " fill="#375A95" transform="translate(221,67)"/>
<path d="M0 0 C2.375 0.1875 2.375 0.1875 5 1 C6.3125 3.5625 6.3125 3.5625 7 6 C3.73539027 4.19587357 2.11070205 3.16605307 0 0 Z " fill="#214A86" transform="translate(73,348)"/>
<path d="M0 0 C3.76488042 1.72154788 6.15063897 3.99234114 9 7 C6 7 6 7 4.39453125 5.46875 C3.87246094 4.8190625 3.35039063 4.169375 2.8125 3.5 C2.28269531 2.8503125 1.75289063 2.200625 1.20703125 1.53125 C0.80871094 1.0259375 0.41039063 0.520625 0 0 Z " fill="#29518B" transform="translate(64,340)"/>
<path d="M0 0 C0 3 0 3 -1 6 C-2.65 5.67 -4.3 5.34 -6 5 C-5.195625 4.360625 -4.39125 3.72125 -3.5625 3.0625 C-1.7249496 1.59396498 -1.7249496 1.59396498 0 0 Z " fill="#215091" transform="translate(317,293)"/>
<path d="M0 0 C0.33 0 0.66 0 1 0 C1.33 2.31 1.66 4.62 2 7 C0.02 7.99 0.02 7.99 -2 9 C-1.34 6.03 -0.68 3.06 0 0 Z " fill="#DFF2FA" transform="translate(387,258)"/>
<path d="M0 0 C1.32 0.33 2.64 0.66 4 1 C3.01 2.485 3.01 2.485 2 4 C0.68 4 -0.64 4 -2 4 C-1.34 2.68 -0.68 1.36 0 0 Z " fill="#06489E" transform="translate(230,260)"/>
<path d="M0 0 C6.875 3.75 6.875 3.75 8 6 C6.35 5.67 4.7 5.34 3 5 C3 4.34 3 3.68 3 3 C2.01 2.67 1.02 2.34 0 2 C0 1.34 0 0.68 0 0 Z " fill="#DCEEFA" transform="translate(304,222)"/>
<path d="M0 0 C0.33 0.99 0.66 1.98 1 3 C-0.98 4.32 -2.96 5.64 -5 7 C-5.66 6.67 -6.32 6.34 -7 6 C-4.69 4.02 -2.38 2.04 0 0 Z " fill="#1F4A86" transform="translate(157,200)"/>
<path d="M0 0 C2.9375 0.375 2.9375 0.375 6 1 C6.33 1.66 6.66 2.32 7 3 C5.35 3.66 3.7 4.32 2 5 C1.34 3.35 0.68 1.7 0 0 Z " fill="#08428B" transform="translate(177,185)"/>
</svg>
